<svg viewBox="0 0 500 500" xmlns="http://www.w3.org/2000/svg">
  <path d="M 202.23 464.031 C 174.039 444.619 147.187 422.951 121.891 399.205 C 64.643 345.064 1.018 263.833 1.018 166.53 C 1.018 107.438 30.221 59.479 71.034 33.591 C 111.907 7.797 164.379 4.063 211.037 33.605 C 215.384 36.351 219.585 39.35 223.623 42.583 L 158.059 259.677 L 148.219 292.259 L 182.252 291.904 L 284.959 290.832 L 210.713 469.81 C 207.873 467.908 205.046 465.981 202.23 464.031 Z M 380.587 14.891 C 427.158 22.988 470.12 56.246 489.475 111.397 C 495.665 129.002 498.839 147.695 498.839 166.53 C 498.839 263.833 435.239 345.07 377.961 399.211 C 341.992 432.918 302.963 462.432 261.466 487.301 L 260.707 487.743 L 260.661 487.743 L 260.678 487.733 C 259.099 488.654 257.444 489.357 255.749 489.844 C 258.804 481.33 263.204 469.423 267.991 457.612 C 276.97 435.46 288.537 407.915 300.03 380.888 C 323.014 326.842 345.464 275.446 345.464 275.446 L 360.93 240.037 L 322.293 240.44 L 215.763 241.551 L 275.809 42.729 C 306.83 17.489 344.774 8.759 380.587 14.891 Z" style=""/>
</svg>